# xmcd
#
# Track frame offsets:
#	150
#	17315
#	30503
#	43653
#	53185
#	68817
#	81473
#	102293
#	115725
#	126608
#	137953
#	150130
#
# Disc length: 2144 seconds
#
# Revision: 1
# Processed by: cddbd v1.5.1PL2 Copyright (c) Steve Scherf et al.
# Submitted via: audiograbber 1.83.01
#
DISCID=99085e0c
DTITLE=Kevin Spencer Family - Twelve Gates To The City
DYEAR=1994
DGENRE=Southern Gospel
TTITLE0=Twelve Gates To The City
TTITLE1=More Precious Memories
TTITLE2=I Will Rise Up From My Grave
TTITLE3=A Little Bit Of David In Me
TTITLE4=The Will
TTITLE5=There Is No Other Fountain
TTITLE6=Out Of The Dust
TTITLE7=A Few More Seasons
TTITLE8=He Is The Only Way
TTITLE9=I'll Never Die
TTITLE10=Jesus, Dad and Me
TTITLE11=Sweet Forever
EXTD=
EXTT0=
EXTT1=
EXTT2=
EXTT3=
EXTT4=
EXTT5=
EXTT6=
EXTT7=
EXTT8=
EXTT9=
EXTT10=
EXTT11=
PLAYORDER=
